<?xml version="1.0" encoding="iso-8859-1"?>
<!-- Generator: Adobe Illustrator 19.0.0, SVG Export Plug-In . SVG Version: 6.00 Build 0)  -->
<svg version="1.1" id="Layer_1" xmlns="http://www.w3.org/2000/svg" xmlns:xlink="http://www.w3.org/1999/xlink" x="0px" y="0px"
	 viewBox="0 0 512.001 512.001" style="enable-background:new 0 0 512.001 512.001;" xml:space="preserve">
<path style="fill:#ED2601;" d="M441.418,118.557c10.344,16.481,16.731,35.991,18.003,56.877
	c1.177,19.31,15.909,132.971-213.667,267.968C16.178,308.405,30.91,194.744,32.086,175.434C35.674,116.541,79.917,68.6,138.92,68.6
	c30.497,0,58.007,12.78,77.473,33.275l29.361,34.927l29.361-34.927C294.58,81.38,322.091,68.6,352.587,68.6
	c27.773,0,52.275,10.622,70.807,28.008c0,0,5.312,4.525,9.167,9.376C438.296,113.204,441.418,118.557,441.418,118.557z"/>
<path style="fill:#C91C00;" d="M459.42,175.434c-1.273-20.887-7.658-40.396-18.003-56.877c0,0-3.121-5.353-8.856-12.573
	c-3.855-4.852-9.167-9.376-9.167-9.376c-18.531-17.386-43.034-28.008-70.807-28.008c-4.058,0-8.062,0.233-12.003,0.673
	c22.853,2.578,43.036,12.487,58.862,27.334c0,0,5.312,4.524,9.167,9.376c5.736,7.219,8.856,12.573,8.856,12.573
	c10.344,16.481,16.731,35.991,18.003,56.877c1.155,18.968,15.382,128.972-201.693,260.809c3.919,2.38,7.903,4.766,11.973,7.159
	C475.329,308.405,460.597,194.744,459.42,175.434z"/>
<path d="M504.669,234.964h-44.745c8.984-29.061,7.524-49.82,6.929-58.258c-0.045-0.639-0.086-1.212-0.116-1.718
	c-1.32-21.65-7.927-42.511-19.112-60.329c-2.152-3.43-6.676-4.463-10.107-2.312c-3.43,2.152-4.464,6.678-2.312,10.107
	c9.883,15.743,15.725,34.219,16.895,53.425c0.033,0.547,0.077,1.167,0.126,1.859c0.628,8.89,2.031,28.798-7.652,57.224H305.897
	c-1.944,0-3.808,0.772-5.184,2.146l-53.301,53.302V162.157c0-3.227-2.11-6.075-5.197-7.014c-3.092-0.936-6.427,0.252-8.222,2.931
	l-56.129,83.724h-51.644c-4.049,0-7.331,3.281-7.331,7.331s3.281,7.331,7.331,7.331h55.555c2.445,0,4.728-1.218,6.088-3.248
	l44.887-66.955V308.11c0,2.965,1.786,5.639,4.525,6.773c0.907,0.376,1.859,0.558,2.803,0.558c1.908,0,3.783-0.745,5.186-2.146
	l63.669-63.67h129.929c-2.354,5.376-5.088,10.987-8.278,16.833c-31.444,57.61-93.623,114.266-184.832,168.428
	C154.546,380.724,92.366,324.067,60.922,266.457c-1.864-3.415-3.557-6.741-5.127-9.998h42.087c4.049,0,7.331-3.281,7.331-7.331
	c0-4.049-3.281-7.331-7.331-7.331H49.42c-12.392-32.073-10.819-54.474-10.142-64.06c0.049-0.692,0.093-1.313,0.126-1.859
	c3.472-56.98,46.254-99.949,99.516-99.949c27.476,0,53.04,10.948,72.007,30.835l29.215,34.754c1.393,1.657,3.446,2.614,5.611,2.614
	s4.219-0.957,5.611-2.614l29.215-34.754c18.967-19.887,44.531-30.835,72.007-30.835c24.894,0,47.645,8.998,65.792,26.023
	c2.954,2.768,7.591,2.622,10.363-0.33c2.77-2.953,2.622-7.593-0.33-10.363c-20.617-19.34-47.544-29.992-75.823-29.992
	c-31.609,0-61.01,12.627-82.788,35.557c-0.102,0.108-0.2,0.218-0.296,0.331l-23.75,28.253l-23.75-28.252
	c-0.096-0.113-0.195-0.224-0.296-0.331c-21.778-22.929-51.179-35.557-82.788-35.557c-61.126,0-110.201,48.889-114.151,113.719
	c-0.03,0.506-0.071,1.079-0.116,1.718c-0.641,9.083-2.276,32.457,9.194,65.093H7.331C3.281,241.799,0,245.08,0,249.13
	s3.281,7.331,7.331,7.331h32.327c2.418,5.476,5.191,11.151,8.395,17.022c33.159,60.752,98.424,120.047,193.984,176.239
	c1.147,0.674,2.431,1.012,3.716,1.012s2.569-0.337,3.716-1.012c95.56-56.191,160.825-115.486,193.984-176.239
	c4.561-8.355,8.253-16.318,11.266-23.857h49.95c4.049,0,7.331-3.281,7.331-7.331C512.001,238.245,508.719,234.964,504.669,234.964z"
	/>
<g>
</g>
<g>
</g>
<g>
</g>
<g>
</g>
<g>
</g>
<g>
</g>
<g>
</g>
<g>
</g>
<g>
</g>
<g>
</g>
<g>
</g>
<g>
</g>
<g>
</g>
<g>
</g>
<g>
</g>
</svg>
