<?xml version="1.0" encoding="iso-8859-1"?>
<!-- Generator: Adobe Illustrator 19.0.0, SVG Export Plug-In . SVG Version: 6.00 Build 0)  -->
<svg version="1.1" id="Capa_1" xmlns="http://www.w3.org/2000/svg" xmlns:xlink="http://www.w3.org/1999/xlink" x="0px" y="0px"
	 viewBox="0 0 501.333 501.333" style="enable-background:new 0 0 501.333 501.333;" xml:space="preserve">
<g>
	<g>
		<g>
			<path d="M64.48,240h108.608c6.048,0,13.579,0,13.579-26.667c0-12.619-24.277-26.667-40.725-26.667H66.443
				c-14.4,0-27.733,10.123-28.992,24.203C36,226.677,48.693,240,64.48,240z"/>
			<path d="M490.667,250.667H32v-160C32,84.776,27.224,80,21.333,80H10.667C4.776,80,0,84.776,0,90.667v320
				c0,5.891,4.776,10.667,10.667,10.667h10.667c5.891,0,10.667-4.776,10.667-10.667V336h437.333v74.667
				c0,5.891,4.776,10.667,10.667,10.667h10.667c5.891,0,10.667-4.776,10.667-10.667V261.333
				C501.333,255.442,496.558,250.667,490.667,250.667z"/>
		</g>
	</g>
</g>
<g>
</g>
<g>
</g>
<g>
</g>
<g>
</g>
<g>
</g>
<g>
</g>
<g>
</g>
<g>
</g>
<g>
</g>
<g>
</g>
<g>
</g>
<g>
</g>
<g>
</g>
<g>
</g>
<g>
</g>
</svg>
