<svg id="_x33_0" enable-background="new 0 0 64 64" height="512" viewBox="0 0 64 64" width="512" xmlns="http://www.w3.org/2000/svg"><g><g><g><path d="m53 15c-.72 0-1.43.09-2.1.25-.87-7.46-7.21-13.25-14.9-13.25-3.79 0-7.25 1.41-9.89 3.72 0 0-3-3.72-9.11-3.72-7.18 0-13 5.82-13 13 0 2.35.62 4.55 1.71 6.45 0 0-3.71 1.34-3.71 5.55 0 3.31 2.69 6 6 6h47l3.46-1.85c2.15-1.64 3.54-4.23 3.54-7.15 0-4.97-4.03-9-9-9z" fill="#e6e9ed"/></g><g><path d="m58.46 31.15c2.09 3.9 3.54 7.99 3.54 11.85 0 10.49-8.51 19-19 19s-19-8.51-19-19c0-3.26 1.03-6.67 2.6-10 5.21-10.99 16.4-21 16.4-21s2.01 1.8 4.72 4.71c3.33 3.57 7.71 8.81 10.74 14.44z" fill="#ff826e"/></g><g><path d="m34 38c3.31 0 6 2.69 6 6s-2.69 6-6 6-6-2.69-6-6 2.69-6 6-6z" fill="#fc6e51"/></g><g><path d="m44 24c3.31 0 6 2.69 6 6s-2.69 6-6 6-6-2.69-6-6 2.69-6 6-6z" fill="#fc6e51"/></g><g><path d="m51 40c3.87 0 7 3.13 7 7s-3.13 7-7 7-7-3.13-7-7 3.13-7 7-7z" fill="#fc6e51"/></g><g><circle cx="34" cy="44" fill="#e9573f" r="2"/></g><g><circle cx="44" cy="30" fill="#e9573f" r="2"/></g><g><circle cx="54" cy="38" fill="#e9573f" r="2"/></g><g><circle cx="43" cy="22" fill="#e9573f" r="2"/></g><g><circle cx="33" cy="33" fill="#e9573f" r="2"/></g><g><circle cx="41" cy="56" fill="#e9573f" r="2"/></g><g><circle cx="51" cy="47" fill="#e9573f" r="3"/></g></g><g><path d="m51 43c-2.206 0-4 1.794-4 4s1.794 4 4 4 4-1.794 4-4-1.794-4-4-4zm0 6c-1.103 0-2-.897-2-2s.897-2 2-2 2 .897 2 2-.897 2-2 2z"/><path d="m34 41c-1.654 0-3 1.346-3 3s1.346 3 3 3 3-1.346 3-3-1.346-3-3-3zm0 4c-.552 0-1-.448-1-1s.448-1 1-1 1 .448 1 1-.448 1-1 1z"/><path d="m41 44c0-3.859-3.141-7-7-7s-7 3.141-7 7 3.141 7 7 7 7-3.141 7-7zm-7 5c-2.757 0-5-2.243-5-5s2.243-5 5-5 5 2.243 5 5-2.243 5-5 5z"/><path d="m41 30c0 1.654 1.346 3 3 3s3-1.346 3-3-1.346-3-3-3-3 1.346-3 3zm4 0c0 .551-.448 1-1 1s-1-.449-1-1 .448-1 1-1 1 .449 1 1z"/><path d="m41 53c-1.654 0-3 1.346-3 3s1.346 3 3 3 3-1.346 3-3-1.346-3-3-3zm0 4c-.552 0-1-.448-1-1s.448-1 1-1 1 .448 1 1-.448 1-1 1z"/><path d="m51.187 39.009c-.063-.001-.124-.009-.187-.009-4.411 0-8 3.589-8 8s3.589 8 8 8 8-3.589 8-8c0-2.677-1.326-5.045-3.351-6.498.812-.537 1.351-1.457 1.351-2.502 0-1.654-1.346-3-3-3s-3 1.346-3 3c0 .356.073.693.187 1.009zm5.813 7.991c0 3.309-2.691 6-6 6s-6-2.691-6-6 2.691-6 6-6 6 2.691 6 6zm-3-10c.552 0 1 .448 1 1s-.448 1-1 1-1-.448-1-1 .448-1 1-1z"/><path d="m40 22c0 .702.252 1.34.658 1.851-2.177 1.189-3.658 3.499-3.658 6.149 0 3.859 3.141 7 7 7s7-3.141 7-7c0-3.261-2.245-6-5.268-6.774.169-.375.268-.788.268-1.226 0-1.654-1.346-3-3-3s-3 1.346-3 3zm9 8c0 2.757-2.243 5-5 5s-5-2.243-5-5 2.243-5 5-5 5 2.243 5 5zm-5-8c0 .551-.448 1-1 1s-1-.449-1-1 .448-1 1-1 1 .449 1 1z"/><path d="m33 36c1.654 0 3-1.346 3-3s-1.346-3-3-3-3 1.346-3 3 1.346 3 3 3zm0-4c.552 0 1 .449 1 1 0 .552-.448 1-1 1s-1-.448-1-1c0-.551.448-1 1-1z"/><path d="m18 17h-2c-1.654 0-3 1.346-3 3v4c0 1.654 1.346 3 3 3h2c1.654 0 3-1.346 3-3v-4c0-1.654-1.346-3-3-3zm1 7c0 .551-.448 1-1 1h-2c-.552 0-1-.449-1-1v-4c0-.551.448-1 1-1h2c.552 0 1 .449 1 1z"/><path d="m27 11h-4v2h4v2h-2c-1.103 0-2 .897-2 2v2c0 1.103.897 2 2 2h4v-2h-4v-2h2c1.103 0 2-.897 2-2v-2c0-1.103-.897-2-2-2z"/><path d="m63 24c0-5.514-4.486-10-10-10-.432 0-.858.034-1.279.088-1.383-7.529-7.955-13.088-15.721-13.088-3.568 0-7.02 1.189-9.819 3.367-1.285-1.181-4.32-3.367-9.181-3.367-7.72 0-14 6.28-14 14 0 2.088.467 4.149 1.357 6.019-1.294.787-3.357 2.575-3.357 5.981 0 3.86 3.141 7 7 7h17.06c-1.262 2.997-2.06 6.051-2.06 9 0 11.028 8.972 20 20 20s20-8.972 20-20c0-3.812-1.327-7.799-3.279-11.611 2.087-1.894 3.279-4.536 3.279-7.389zm-2 0c0 2.112-.818 4.08-2.263 5.563-2.775-4.865-6.425-9.339-9.442-12.648 1.138-.597 2.398-.915 3.705-.915 4.411 0 8 3.589 8 8zm-53 8c-2.757 0-5-2.243-5-5 0-3.428 2.932-4.563 3.051-4.607l1.121-.404-.593-1.034c-1.033-1.803-1.579-3.862-1.579-5.955 0-6.617 5.383-12 12-12 5.521 0 8.219 3.217 8.328 3.35l.654.814.785-.689c2.553-2.241 5.833-3.475 9.233-3.475 6.824 0 12.595 4.906 13.77 11.537-.653.223-1.282.513-1.881.87-2.299-2.415-3.995-3.949-4.222-4.152l-.667-.597-.667.597c-.59.528-11.094 10.02-16.365 20.745zm35 29c-9.925 0-18-8.075-18-18 0-11.928 14.667-26.482 18-29.635 3.333 3.151 18 17.7 18 29.635 0 9.925-8.075 18-18 18z"/></g></g></svg>