<svg id="svg" version="1.1" xmlns="http://www.w3.org/2000/svg" xmlns:xlink="http://www.w3.org/1999/xlink" width="400" height="501.6077170418006" viewBox="0, 0, 400,501.6077170418006"><g id="svgg"><path id="path0" d="M195.600 34.005 C 193.510 34.191,189.730 34.526,187.200 34.750 C 162.867 36.905,142.803 46.421,118.028 67.559 C 97.320 85.228,76.616 118.907,65.997 152.200 C 65.716 153.080,63.907 157.670,61.977 162.400 C 40.559 214.886,38.362 265.811,56.331 293.263 C 57.433 294.948,62.097 301.158,66.695 307.063 C 84.352 329.741,105.534 356.880,115.349 369.400 C 119.316 374.460,125.030 381.750,128.048 385.600 C 131.066 389.450,136.574 396.470,140.288 401.200 C 144.001 405.930,151.531 415.549,157.020 422.576 C 172.696 442.645,179.462 448.927,192.319 455.352 C 227.333 472.847,264.137 461.906,279.834 429.334 C 289.363 409.563,287.155 382.801,274.213 361.193 C 270.234 354.551,269.957 355.250,277.378 353.203 C 283.047 351.639,283.626 351.820,286.301 355.991 C 287.592 358.003,293.483 369.684,294.734 372.709 C 295.475 374.503,297.068 374.448,300.200 372.521 C 305.824 369.060,307.570 370.428,313.065 382.603 C 317.184 391.728,330.080 394.493,341.400 388.678 C 354.526 381.936,361.435 366.423,367.405 330.291 C 369.583 317.106,370.038 313.699,371.155 302.200 C 371.390 299.780,371.794 295.910,372.054 293.600 C 372.736 287.517,373.024 239.450,372.421 232.200 C 366.437 160.255,341.509 110.479,290.060 67.742 C 262.074 44.495,225.313 31.365,195.600 34.005 M231.000 76.026 C 237.050 76.736,244.129 79.270,252.489 83.718 C 267.833 91.882,268.200 92.107,277.595 99.130 C 294.014 111.405,311.566 133.449,311.123 141.239 L 311.000 143.400 309.144 143.520 C 306.467 143.693,299.593 138.171,285.471 124.501 C 264.564 104.263,247.005 92.754,227.050 86.211 C 219.645 83.783,218.519 83.537,205.767 81.574 C 204.429 81.369,202.179 81.198,200.767 81.195 C 195.550 81.183,195.211 80.560,199.500 78.864 C 204.460 76.901,208.093 76.096,214.800 75.472 C 217.067 75.261,227.532 75.619,231.000 76.026 M218.600 84.945 C 226.330 86.624,227.669 87.008,232.400 88.906 C 283.433 109.374,328.816 178.557,336.633 247.800 C 338.165 261.374,335.794 271.381,327.437 286.600 C 322.433 295.715,321.902 295.861,316.050 289.719 C 304.996 278.116,289.174 270.237,268.124 265.851 C 253.080 262.717,245.548 262.446,233.400 264.603 C 231.640 264.916,229.516 265.278,228.679 265.408 C 225.674 265.875,226.157 267.925,230.974 275.140 C 234.156 279.907,234.826 281.198,235.378 283.623 C 236.308 287.712,237.319 289.433,242.883 296.400 C 247.129 301.717,258.339 316.122,263.271 322.600 C 269.136 330.304,269.339 336.340,263.817 338.848 C 258.802 341.126,255.811 339.034,245.732 326.200 C 242.449 322.020,238.151 316.548,236.181 314.041 C 234.212 311.533,229.438 305.503,225.573 300.641 C 221.708 295.778,212.988 284.780,206.196 276.200 C 199.403 267.620,191.691 257.900,189.058 254.600 C 183.758 247.959,181.608 244.808,179.466 240.541 C 178.677 238.969,177.102 236.629,175.966 235.341 C 159.519 216.698,145.389 192.465,142.996 178.800 C 141.760 171.741,142.071 170.956,146.780 169.239 C 150.515 167.878,150.492 167.950,150.633 157.084 C 151.142 117.788,168.491 91.225,198.200 84.258 C 200.313 83.763,215.514 84.274,218.600 84.945 M126.800 115.767 C 126.800 116.078,126.975 116.393,127.189 116.467 C 127.404 116.540,127.671 118.490,127.784 120.800 C 128.528 136.023,129.342 143.869,130.442 146.400 C 130.681 146.950,131.112 148.570,131.400 150.000 C 131.689 151.430,132.278 153.950,132.710 155.600 C 134.253 161.498,134.252 163.428,132.705 164.975 L 131.366 166.314 133.449 168.257 C 135.845 170.493,136.044 171.060,136.982 178.336 C 138.932 193.460,147.136 207.802,171.496 238.673 C 174.762 242.813,179.850 249.260,182.801 253.000 C 185.752 256.740,190.604 262.878,193.583 266.639 C 196.562 270.401,201.160 276.234,203.800 279.602 C 221.237 301.844,226.644 308.765,238.017 323.400 C 273.493 369.054,271.176 364.950,264.900 371.016 C 255.690 379.918,256.847 380.720,227.600 345.177 C 226.390 343.706,223.600 340.380,221.400 337.786 C 219.200 335.191,215.060 330.246,212.200 326.796 C 198.899 310.751,195.880 307.131,191.400 301.851 C 188.760 298.740,185.883 295.296,185.006 294.197 C 184.129 293.099,181.523 289.950,179.215 287.200 C 176.906 284.450,169.550 275.630,162.867 267.600 C 154.168 257.148,148.820 251.125,144.040 246.400 C 120.321 222.954,106.231 192.654,109.732 172.624 C 110.643 167.415,112.061 165.931,116.865 165.160 C 120.323 164.606,120.397 164.358,117.616 162.642 C 116.289 161.823,115.022 160.815,114.801 160.403 C 113.911 158.739,114.553 152.231,116.204 146.200 C 116.746 144.220,117.443 141.340,117.753 139.800 C 118.787 134.664,122.058 123.337,123.529 119.800 C 125.126 115.958,126.800 113.894,126.800 115.767 M267.222 277.407 C 272.405 278.958,272.960 280.178,268.785 280.838 C 264.974 281.440,260.800 279.729,260.800 277.564 C 260.800 276.125,262.780 276.077,267.222 277.407 M110.644 281.132 C 111.109 281.521,114.176 285.160,117.459 289.219 C 134.619 310.433,142.770 320.371,150.744 329.800 C 155.581 335.520,162.298 343.962,165.670 348.561 C 169.041 353.159,175.630 362.069,180.310 368.361 C 202.418 398.077,203.417 399.321,209.614 404.879 C 211.676 406.729,211.706 406.787,211.498 408.624 C 210.950 413.491,205.477 413.503,202.000 408.643 C 199.304 404.876,196.153 400.818,190.423 393.739 C 187.245 389.812,182.759 384.260,180.452 381.400 C 178.146 378.540,171.908 370.980,166.592 364.600 C 154.004 349.495,152.061 347.048,140.396 331.600 C 134.997 324.450,125.200 311.760,118.625 303.400 C 105.277 286.429,105.204 286.325,105.201 284.474 C 105.198 281.325,108.471 279.316,110.644 281.132 M297.458 287.164 C 303.289 289.922,306.571 295.600,302.335 295.600 C 299.734 295.600,292.268 290.892,290.843 288.353 C 289.363 285.716,293.010 285.059,297.458 287.164 M164.569 328.108 C 169.562 333.335,176.026 342.534,175.251 343.309 C 174.582 343.978,170.010 338.816,163.869 330.456 C 160.995 326.544,161.490 324.885,164.569 328.108 " stroke="none" fill="#3a403a" fill-rule="evenodd"></path><path id="path1" d="M0.000 250.800 L 0.000 501.600 200.000 501.600 L 400.000 501.600 400.000 250.800 L 400.000 0.000 200.000 0.000 L 0.000 0.000 0.000 250.800 M212.496 29.422 C 246.142 32.850,275.050 46.451,301.818 71.448 C 349.362 115.846,371.037 160.413,377.278 226.600 C 377.936 233.578,378.202 285.229,377.613 291.600 C 374.404 326.289,369.767 351.788,364.128 365.758 C 354.627 389.293,341.549 398.817,323.400 395.418 C 315.778 393.990,311.879 390.802,308.634 383.345 C 305.387 375.881,304.915 375.405,302.194 376.842 C 298.656 378.711,298.670 378.675,298.935 385.027 C 299.571 400.248,296.692 411.961,289.697 422.622 C 288.406 424.590,285.485 429.260,283.207 433.000 C 276.966 443.243,273.053 448.134,267.264 452.929 C 241.631 474.156,204.735 472.533,175.353 448.886 C 168.818 443.627,165.903 440.276,149.349 419.000 C 144.727 413.060,133.769 399.020,124.998 387.800 C 116.227 376.580,106.801 364.520,104.052 361.000 C 101.302 357.480,94.891 349.290,89.803 342.800 C 84.716 336.310,79.124 329.163,77.377 326.919 C 75.629 324.674,70.150 317.659,65.200 311.331 C 60.250 305.003,55.424 298.739,54.475 297.412 C 34.010 268.796,35.308 216.881,57.892 160.800 C 59.974 155.630,62.114 149.916,62.648 148.101 C 70.808 120.364,92.953 83.685,111.798 66.692 C 144.469 37.232,175.702 25.673,212.496 29.422 M196.845 89.395 C 182.588 92.617,170.727 103.006,163.275 118.800 C 151.620 143.501,152.745 180.955,165.434 190.731 C 170.062 194.296,173.059 197.455,179.540 205.600 C 182.953 209.890,192.633 222.052,201.051 232.627 L 216.356 251.854 219.538 253.567 C 221.288 254.509,223.932 256.355,225.413 257.670 C 229.067 260.913,229.158 260.936,234.706 259.953 C 261.416 255.219,297.141 265.692,315.874 283.746 C 318.810 286.575,320.591 288.012,320.977 287.864 C 322.012 287.467,324.904 281.088,330.255 267.400 L 332.600 261.400 332.566 255.600 C 332.475 240.287,326.075 213.346,317.323 191.434 C 296.314 138.834,256.780 98.208,218.600 89.982 C 213.347 88.851,200.757 88.511,196.845 89.395 " stroke="none" fill="#fbfbfb" fill-rule="evenodd"></path><path id="path2" d="M188.600 32.872 C 162.554 35.703,143.502 44.402,119.600 64.376 C 97.375 82.949,76.868 115.163,65.984 148.600 C 65.268 150.800,63.020 156.740,60.988 161.800 C 43.039 206.502,38.414 248.714,48.222 278.308 C 51.768 289.009,54.052 292.458,76.498 321.000 C 78.401 323.420,85.924 333.050,93.216 342.400 C 100.509 351.750,108.877 362.460,111.813 366.200 C 114.749 369.940,120.886 377.770,125.451 383.600 C 130.016 389.430,136.924 398.250,140.802 403.200 C 144.680 408.150,152.071 417.591,157.226 424.181 C 172.102 443.193,178.839 449.429,191.563 455.960 C 239.578 480.605,287.918 450.649,287.998 396.200 C 288.007 390.124,288.484 387.604,290.055 385.319 C 290.770 384.281,291.673 382.281,292.064 380.873 C 292.961 377.637,293.189 377.379,296.592 375.760 C 298.137 375.025,300.370 373.878,301.555 373.212 C 305.642 370.914,307.342 372.120,310.579 379.617 C 314.563 388.844,316.857 390.843,325.075 392.243 C 351.394 396.730,366.318 368.757,372.583 303.200 C 372.930 299.570,373.421 295.070,373.675 293.200 C 373.967 291.050,374.200 280.170,374.309 263.600 C 374.493 235.708,374.551 237.137,372.362 216.200 C 368.200 176.389,354.631 140.875,331.405 109.000 C 319.260 92.332,296.968 70.203,280.741 58.704 C 253.506 39.406,218.575 29.613,188.600 32.872 M215.000 34.596 C 251.205 38.659,285.140 58.130,315.744 92.400 C 351.401 132.328,367.396 171.782,372.421 232.200 C 373.024 239.450,372.736 287.517,372.054 293.600 C 371.794 295.910,371.390 299.780,371.155 302.200 C 370.038 313.699,369.583 317.106,367.405 330.291 C 361.435 366.423,354.526 381.936,341.400 388.678 C 330.080 394.493,317.184 391.728,313.065 382.603 C 307.570 370.428,305.824 369.060,300.200 372.521 C 297.068 374.448,295.475 374.503,294.734 372.709 C 293.483 369.684,287.592 358.003,286.301 355.991 C 283.626 351.820,283.047 351.639,277.378 353.203 C 269.957 355.250,270.234 354.551,274.213 361.193 C 287.155 382.801,289.363 409.563,279.834 429.334 C 264.137 461.906,227.333 472.847,192.319 455.352 C 179.462 448.927,172.696 442.645,157.020 422.576 C 151.531 415.549,144.001 405.930,140.288 401.200 C 136.574 396.470,131.066 389.450,128.048 385.600 C 125.030 381.750,119.316 374.460,115.349 369.400 C 105.534 356.880,84.352 329.741,66.695 307.063 C 62.097 301.158,57.433 294.948,56.331 293.263 C 38.362 265.811,40.559 214.886,61.977 162.400 C 63.907 157.670,65.716 153.080,65.997 152.200 C 76.616 118.907,97.320 85.228,118.028 67.559 C 142.803 46.421,162.867 36.905,187.200 34.750 C 189.730 34.526,193.510 34.191,195.600 34.005 C 200.299 33.587,208.139 33.826,215.000 34.596 M214.800 75.472 C 208.093 76.096,204.460 76.901,199.500 78.864 C 195.211 80.560,195.550 81.183,200.767 81.195 C 202.179 81.198,204.429 81.369,205.767 81.574 C 218.519 83.537,219.645 83.783,227.050 86.211 C 247.005 92.754,264.564 104.263,285.471 124.501 C 299.593 138.171,306.467 143.693,309.144 143.520 L 311.000 143.400 311.123 141.239 C 311.663 131.748,291.102 108.062,269.467 93.251 C 265.307 90.404,250.650 82.514,244.889 80.021 C 236.623 76.444,224.325 74.585,214.800 75.472 M198.200 84.258 C 168.491 91.225,151.142 117.788,150.633 157.084 C 150.492 167.950,150.515 167.878,146.780 169.239 C 142.071 170.956,141.760 171.741,142.996 178.800 C 145.389 192.465,159.519 216.698,175.966 235.341 C 177.102 236.629,178.677 238.969,179.466 240.541 C 181.608 244.808,183.758 247.959,189.058 254.600 C 191.691 257.900,199.403 267.620,206.196 276.200 C 212.988 284.780,221.708 295.778,225.573 300.641 C 229.438 305.503,234.212 311.533,236.181 314.041 C 238.151 316.548,242.449 322.020,245.732 326.200 C 255.811 339.034,258.802 341.126,263.817 338.848 C 269.339 336.340,269.136 330.304,263.271 322.600 C 258.339 316.122,247.129 301.717,242.883 296.400 C 237.319 289.433,236.308 287.712,235.378 283.623 C 234.826 281.198,234.156 279.907,230.974 275.140 C 226.157 267.925,225.674 265.875,228.679 265.408 C 229.516 265.278,231.640 264.916,233.400 264.603 C 245.548 262.446,253.080 262.717,268.124 265.851 C 289.174 270.237,304.996 278.116,316.050 289.719 C 321.902 295.861,322.433 295.715,327.437 286.600 C 338.053 267.266,339.181 257.844,333.981 231.979 C 325.747 191.031,307.971 154.671,281.754 125.155 C 266.967 108.506,249.762 95.870,232.400 88.906 C 227.669 87.008,226.330 86.624,218.600 84.945 C 215.514 84.274,200.313 83.763,198.200 84.258 M218.800 86.816 C 274.499 97.773,328.090 173.811,336.019 253.131 C 336.809 261.034,333.810 270.839,325.601 287.198 C 322.219 293.938,321.460 294.069,316.468 288.775 C 298.262 269.464,259.904 257.871,233.248 263.624 C 229.241 264.489,226.783 264.019,224.039 261.863 C 220.652 259.202,214.400 256.395,214.400 257.535 C 214.400 257.767,215.480 259.361,216.800 261.078 C 228.976 276.918,233.255 282.880,234.973 286.400 C 236.382 289.288,238.318 292.072,243.040 298.000 C 250.194 306.981,260.528 320.407,263.297 324.320 C 268.649 331.880,267.679 338.400,261.204 338.400 C 258.020 338.400,255.422 336.512,251.136 331.083 C 247.045 325.900,234.859 310.497,224.963 298.000 C 220.346 292.170,213.934 284.070,210.714 280.000 C 207.493 275.930,201.208 268.010,196.746 262.400 C 179.885 241.200,178.967 239.425,182.396 234.661 C 184.778 231.352,187.668 230.743,192.179 232.597 C 196.413 234.337,196.615 234.655,181.014 215.025 C 175.984 208.695,172.305 203.677,171.577 202.153 C 170.265 199.402,168.181 197.324,164.000 194.594 C 159.189 191.454,156.940 187.943,153.875 178.786 C 150.006 167.226,151.464 141.370,156.872 125.650 C 167.415 95.005,189.625 81.077,218.800 86.816 M124.786 117.100 C 123.478 119.787,123.360 120.095,121.764 125.000 C 120.102 130.107,118.555 135.816,117.753 139.800 C 117.443 141.340,116.746 144.220,116.204 146.200 C 114.553 152.231,113.911 158.739,114.801 160.403 C 115.022 160.815,116.289 161.823,117.616 162.642 C 120.397 164.358,120.323 164.606,116.865 165.160 C 112.061 165.931,110.643 167.415,109.732 172.624 C 106.231 192.654,120.321 222.954,144.040 246.400 C 148.820 251.125,154.168 257.148,162.867 267.600 C 169.550 275.630,176.906 284.450,179.215 287.200 C 181.523 289.950,184.129 293.099,185.006 294.197 C 185.883 295.296,188.760 298.740,191.400 301.851 C 195.880 307.131,198.899 310.751,212.200 326.796 C 215.060 330.246,219.200 335.191,221.400 337.786 C 223.600 340.380,226.390 343.706,227.600 345.177 C 256.847 380.720,255.690 379.918,264.900 371.016 C 270.447 365.655,270.227 364.947,258.192 349.400 C 245.082 332.465,225.516 307.311,216.936 296.362 C 200.666 275.599,198.941 273.405,193.583 266.639 C 190.604 262.878,185.752 256.740,182.801 253.000 C 179.850 249.260,174.762 242.813,171.496 238.673 C 147.136 207.802,138.932 193.460,136.982 178.336 C 136.044 171.060,135.845 170.493,133.449 168.257 L 131.366 166.314 132.705 164.975 C 134.252 163.428,134.253 161.498,132.710 155.600 C 132.278 153.950,131.689 151.430,131.400 150.000 C 131.112 148.570,130.681 146.950,130.442 146.400 C 129.342 143.869,128.528 136.023,127.784 120.800 C 127.671 118.490,127.404 116.540,127.189 116.467 C 126.975 116.393,126.800 116.078,126.800 115.767 C 126.800 114.545,125.664 115.297,124.786 117.100 M125.448 169.010 C 133.738 170.435,134.161 170.762,134.780 176.223 C 136.795 194.007,144.258 207.175,172.745 243.200 C 228.898 314.213,249.283 341.661,250.431 347.800 C 250.596 348.680,250.859 350.073,251.017 350.897 C 252.432 358.284,241.002 348.762,225.200 329.390 C 223.550 327.367,219.500 322.483,216.200 318.536 C 212.900 314.590,206.697 307.049,202.414 301.780 C 198.132 296.511,191.742 288.680,188.214 284.377 C 184.687 280.074,179.820 274.137,177.400 271.183 C 174.980 268.230,172.010 264.619,170.800 263.160 C 169.590 261.702,166.106 257.426,163.057 253.658 C 159.486 249.246,154.669 243.997,149.519 238.904 C 126.341 215.990,114.000 194.029,114.000 175.697 C 114.000 168.429,115.833 167.358,125.448 169.010 M261.300 276.665 C 260.068 277.162,261.275 279.248,263.400 280.294 C 266.419 281.779,272.879 280.707,271.175 279.004 C 269.916 277.744,262.801 276.059,261.300 276.665 M107.110 281.024 C 102.951 283.281,103.233 283.829,118.625 303.400 C 125.200 311.760,134.997 324.450,140.396 331.600 C 152.061 347.048,154.004 349.495,166.592 364.600 C 171.908 370.980,178.146 378.540,180.452 381.400 C 182.759 384.260,187.245 389.812,190.423 393.739 C 196.153 400.818,199.304 404.876,202.000 408.643 C 205.477 413.503,210.950 413.491,211.498 408.624 C 211.706 406.787,211.676 406.729,209.614 404.879 C 203.417 399.321,202.418 398.077,180.310 368.361 C 175.630 362.069,169.041 353.159,165.670 348.561 C 162.298 343.962,155.581 335.520,150.744 329.800 C 142.770 320.371,134.619 310.433,117.459 289.219 C 109.785 279.732,109.665 279.637,107.110 281.024 M111.268 285.100 C 112.055 285.925,118.241 293.530,125.015 302.000 C 138.278 318.584,140.331 321.061,145.432 326.631 C 154.596 336.637,164.844 349.767,170.545 358.805 C 172.335 361.643,175.060 365.791,176.600 368.024 C 189.105 386.149,189.532 387.802,178.555 375.590 C 175.889 372.626,170.780 366.960,167.201 363.000 C 159.258 354.213,149.366 341.915,142.380 332.141 C 136.284 323.615,131.040 316.710,117.645 299.573 C 107.520 286.619,106.669 285.322,107.573 284.232 C 108.434 283.195,109.745 283.503,111.268 285.100 M290.521 286.663 C 289.669 288.883,298.548 295.600,302.335 295.600 C 305.088 295.600,304.670 292.621,301.517 289.773 C 298.066 286.655,291.262 284.731,290.521 286.663 M162.000 327.156 C 162.000 329.132,174.360 344.200,175.251 343.309 C 175.890 342.670,174.775 340.822,170.246 335.008 C 164.164 327.202,162.000 325.142,162.000 327.156 M207.569 406.236 C 209.529 407.885,209.113 410.400,206.880 410.400 C 204.936 410.400,202.318 406.615,203.467 405.467 C 204.112 404.821,206.398 405.250,207.569 406.236 " stroke="none" fill="#747474" fill-rule="evenodd"></path><path id="path3" d="M192.800 31.009 C 192.470 31.102,189.560 31.446,186.334 31.773 C 160.905 34.346,137.707 45.911,113.012 68.327 C 94.781 84.875,73.974 119.119,65.125 147.138 C 64.454 149.262,62.051 155.680,59.786 161.400 C 38.356 215.507,36.093 263.616,53.612 292.619 C 55.538 295.808,59.666 301.217,81.230 328.800 C 85.959 334.850,94.331 345.560,99.834 352.600 C 105.336 359.640,113.154 369.630,117.206 374.800 C 133.540 395.638,140.973 405.139,149.751 416.400 C 167.582 439.275,170.326 442.440,176.799 447.596 C 212.437 475.986,258.472 470.454,279.244 435.287 C 281.970 430.671,283.950 426.673,287.903 417.800 C 295.382 401.012,295.618 400.111,295.840 387.435 C 296.017 377.315,295.726 378.089,300.392 375.354 C 305.109 372.588,306.218 372.976,308.638 378.238 C 309.387 379.867,310.619 382.546,311.377 384.192 C 316.935 396.274,335.437 397.567,348.352 386.777 C 361.035 376.179,369.379 349.422,373.978 304.600 C 374.429 300.200,375.023 294.620,375.296 292.200 C 375.980 286.149,375.997 236.396,375.317 230.200 C 375.052 227.780,374.544 222.830,374.190 219.200 C 368.155 157.448,340.571 105.929,291.934 65.566 C 268.836 46.398,243.667 35.325,215.111 31.767 C 210.498 31.193,194.113 30.635,192.800 31.009 M214.200 32.652 C 253.946 36.994,288.273 57.454,322.714 97.330 C 340.640 118.085,355.811 145.641,363.933 172.200 C 368.846 188.262,371.663 203.308,373.897 225.400 C 374.883 235.161,375.118 283.331,374.221 292.000 C 373.868 295.410,373.389 300.180,373.157 302.600 C 371.438 320.492,366.460 349.039,363.333 358.937 C 355.042 385.183,341.159 396.500,322.519 392.208 C 316.612 390.848,313.800 388.113,310.596 380.612 C 306.622 371.308,305.943 370.988,298.941 375.116 C 294.236 377.889,294.014 378.252,294.006 383.167 C 293.997 388.673,293.368 391.690,291.370 395.800 C 290.023 398.572,289.475 400.320,288.989 403.400 C 286.711 417.825,284.143 425.492,278.411 434.981 C 253.703 475.888,197.028 474.811,163.560 432.800 C 161.895 430.710,156.037 423.240,150.541 416.200 C 140.932 403.889,135.708 397.212,117.995 374.600 C 113.514 368.880,105.416 358.530,100.000 351.600 C 94.583 344.670,86.563 334.410,82.177 328.800 C 51.520 289.591,50.831 288.556,47.210 276.368 C 38.222 246.115,43.104 205.072,60.949 160.846 C 62.779 156.311,64.949 150.530,65.771 148.000 C 75.388 118.409,94.861 86.260,113.584 69.063 C 138.581 46.104,161.982 34.821,189.600 32.410 C 192.570 32.151,195.360 31.877,195.800 31.801 C 197.378 31.528,208.708 32.052,214.200 32.652 M194.800 87.012 C 168.643 93.707,152.412 121.208,152.403 158.848 C 152.398 177.726,156.007 188.471,164.212 194.008 C 167.979 196.550,170.727 199.265,172.302 202.000 C 172.998 203.210,177.014 208.520,181.225 213.800 C 185.437 219.080,191.063 226.190,193.727 229.600 C 196.392 233.010,202.018 240.136,206.230 245.435 L 213.888 255.071 217.644 256.970 C 219.710 258.014,222.221 259.555,223.224 260.394 C 227.509 263.977,228.272 264.119,235.860 262.737 C 242.608 261.508,252.458 261.511,260.400 262.743 C 286.760 266.833,304.067 274.921,317.710 289.527 C 321.962 294.079,322.386 293.702,328.545 279.926 C 334.779 265.982,336.343 259.992,335.607 252.876 C 327.354 173.058,274.356 98.347,217.950 87.015 C 210.759 85.570,200.439 85.569,194.800 87.012 M219.200 88.128 C 274.471 100.425,326.968 174.865,334.566 251.716 C 335.401 260.170,334.535 263.735,327.929 279.000 C 322.002 292.699,321.981 292.714,316.756 287.364 C 297.718 267.871,259.243 256.364,233.184 262.369 C 229.193 263.289,228.100 262.907,223.159 258.864 C 221.992 257.909,219.859 256.530,218.419 255.799 C 215.354 254.242,213.929 252.825,208.341 245.773 C 206.064 242.898,201.140 236.691,197.400 231.980 C 179.578 209.531,175.202 203.979,173.133 201.200 C 170.448 197.593,169.283 196.459,164.620 192.918 C 156.557 186.795,153.399 176.950,153.421 158.000 C 153.478 109.168,181.236 79.682,219.200 88.128 M118.425 170.700 C 115.129 173.372,119.124 188.601,126.793 202.600 C 131.548 211.279,135.174 215.604,150.607 231.000 C 159.077 239.450,163.664 244.361,166.112 247.600 C 171.369 254.554,182.244 268.219,196.035 285.200 C 197.375 286.850,199.401 289.356,200.536 290.769 C 201.671 292.181,202.870 293.630,203.200 293.989 C 203.530 294.347,205.016 296.009,206.502 297.682 C 207.987 299.354,209.787 301.329,210.502 302.070 C 211.216 302.811,212.487 304.184,213.328 305.121 C 217.279 309.529,220.462 309.797,217.724 305.492 C 217.132 304.561,216.367 303.251,216.024 302.581 C 214.991 300.561,212.631 297.268,203.031 284.446 C 193.206 271.324,189.909 267.062,175.047 248.276 C 144.541 209.716,136.075 195.395,133.791 178.490 C 132.856 171.566,133.178 171.940,127.143 170.770 C 122.126 169.797,119.564 169.777,118.425 170.700 M184.861 233.042 C 180.833 235.864,180.677 240.367,184.418 245.838 C 185.587 247.548,197.156 262.280,211.402 280.200 C 213.851 283.280,219.772 290.750,224.561 296.800 C 229.349 302.850,236.198 311.490,239.779 316.000 C 243.361 320.510,247.686 326.000,249.390 328.200 C 257.269 338.372,263.022 340.972,265.793 335.613 C 268.079 331.194,265.626 327.128,244.793 300.800 C 237.100 291.078,235.979 289.525,234.253 286.200 C 233.453 284.660,229.874 279.651,226.299 275.070 C 222.725 270.488,217.370 263.617,214.400 259.802 C 196.128 236.330,195.502 235.613,191.547 233.637 C 188.764 232.246,186.309 232.028,184.861 233.042 M190.621 234.986 C 193.622 236.482,195.897 239.086,211.256 258.600 C 231.757 284.647,232.116 285.113,234.195 288.376 C 235.238 290.012,238.734 294.692,241.963 298.776 C 249.773 308.650,252.795 312.594,254.397 315.000 C 255.129 316.100,257.249 318.946,259.107 321.325 C 264.916 328.762,266.488 333.054,264.383 335.731 C 261.836 338.969,257.677 336.937,251.904 329.634 C 249.889 327.085,245.081 321.029,241.220 316.176 C 234.019 307.125,231.967 304.533,209.412 276.000 C 202.195 266.870,194.910 257.690,193.225 255.600 C 184.030 244.200,182.107 240.713,183.195 237.414 C 184.265 234.173,187.119 233.240,190.621 234.986 M108.940 285.412 C 108.657 286.150,108.008 285.245,119.990 300.800 C 132.474 317.006,134.185 319.336,140.984 329.400 C 152.867 346.989,172.372 369.600,175.661 369.600 C 178.928 369.600,159.578 341.795,146.851 328.200 C 140.462 321.375,128.764 307.530,116.470 292.243 C 111.427 285.971,110.816 285.297,109.973 285.077 C 109.480 284.948,109.067 285.082,108.940 285.412 M205.216 406.581 C 204.525 407.414,205.091 408.778,206.322 409.247 C 208.106 409.925,209.005 408.205,207.600 406.800 C 206.653 405.853,205.879 405.782,205.216 406.581 " stroke="none" fill="#8d938d" fill-rule="evenodd"></path><path id="path4" d="M195.800 31.801 C 195.360 31.877,192.570 32.151,189.600 32.410 C 161.982 34.821,138.581 46.104,113.584 69.063 C 94.861 86.260,75.402 118.384,65.770 148.000 C 64.947 150.530,62.611 156.740,60.579 161.800 C 54.093 177.950,46.266 203.848,46.426 208.627 C 46.440 209.052,47.065 206.711,47.813 203.425 C 51.040 189.268,55.082 176.493,60.986 161.800 C 63.019 156.740,65.268 150.800,65.984 148.600 C 74.127 123.582,88.742 97.420,105.346 78.137 C 117.438 64.094,141.428 46.671,157.600 40.187 C 195.427 25.021,243.382 32.232,280.741 58.704 C 296.968 70.203,319.260 92.332,331.405 109.000 C 354.631 140.875,368.200 176.389,372.362 216.200 C 374.551 237.137,374.493 235.708,374.309 263.600 C 374.200 280.170,373.967 291.050,373.675 293.200 C 373.421 295.070,372.930 299.570,372.583 303.200 C 370.206 328.078,365.048 354.085,359.947 366.924 C 352.410 385.890,340.126 394.809,325.075 392.243 C 316.857 390.843,314.563 388.844,310.579 379.617 C 307.342 372.120,305.642 370.914,301.555 373.212 C 300.370 373.878,298.137 375.025,296.592 375.760 C 293.189 377.379,292.961 377.637,292.064 380.873 C 291.673 382.281,290.770 384.281,290.055 385.319 C 288.484 387.604,288.007 390.124,287.998 396.200 C 287.952 427.683,272.423 451.735,246.000 461.247 C 243.690 462.078,242.011 462.768,242.268 462.779 C 245.310 462.914,257.409 456.837,263.400 452.167 C 277.463 441.203,285.411 426.055,288.989 403.400 C 289.475 400.320,290.023 398.572,291.370 395.800 C 293.368 391.690,293.997 388.673,294.006 383.167 C 294.014 378.252,294.236 377.889,298.941 375.116 C 305.943 370.988,306.622 371.308,310.596 380.612 C 313.800 388.113,316.612 390.848,322.519 392.208 C 350.884 398.739,366.590 370.945,373.157 302.600 C 373.389 300.180,373.868 295.410,374.221 292.000 C 375.118 283.331,374.883 235.161,373.897 225.400 C 370.833 195.096,366.007 174.520,356.916 153.000 C 335.016 101.159,289.960 55.527,244.949 39.602 C 230.521 34.497,204.286 30.333,195.800 31.801 M200.800 85.637 C 179.396 87.248,160.840 106.536,154.465 133.802 C 151.160 147.935,150.873 169.817,153.875 178.786 C 156.940 187.943,159.189 191.454,164.000 194.594 C 168.181 197.324,170.265 199.402,171.577 202.153 C 172.305 203.677,175.984 208.695,181.014 215.025 C 196.615 234.655,196.413 234.337,192.179 232.597 C 187.668 230.743,184.778 231.352,182.396 234.661 C 178.967 239.425,179.885 241.200,196.746 262.400 C 201.208 268.010,207.493 275.930,210.714 280.000 C 213.934 284.070,220.346 292.170,224.963 298.000 C 234.859 310.497,247.045 325.900,251.136 331.083 C 255.422 336.512,258.020 338.400,261.204 338.400 C 267.679 338.400,268.649 331.880,263.297 324.320 C 260.528 320.407,250.194 306.981,243.040 298.000 C 238.318 292.072,236.382 289.288,234.973 286.400 C 233.255 282.880,228.976 276.918,216.800 261.078 C 215.480 259.361,214.400 257.767,214.400 257.535 C 214.400 256.393,220.654 259.203,224.048 261.870 C 226.888 264.101,229.464 264.506,234.000 263.435 C 235.430 263.097,235.970 262.902,235.200 263.003 C 227.863 263.956,227.351 263.846,223.259 260.424 C 222.237 259.569,219.710 258.014,217.644 256.970 L 213.888 255.071 206.230 245.435 C 202.018 240.136,196.392 233.010,193.727 229.600 C 191.063 226.190,185.437 219.080,181.225 213.800 C 177.014 208.520,172.998 203.210,172.302 202.000 C 170.727 199.265,167.979 196.550,164.212 194.008 C 156.007 188.471,152.398 177.726,152.403 158.848 C 152.415 109.510,179.915 79.373,217.950 87.015 C 271.809 97.835,324.765 169.294,334.584 244.400 C 334.944 247.150,335.400 250.660,335.598 252.200 L 335.959 255.000 335.752 251.600 C 335.009 239.362,330.409 218.623,324.795 202.200 C 300.988 132.553,247.355 82.135,200.800 85.637 M115.942 169.007 C 111.946 171.178,114.286 187.166,120.567 200.600 C 126.658 213.627,134.663 224.218,149.519 238.904 C 154.669 243.997,159.486 249.246,163.057 253.658 C 166.106 257.426,169.590 261.702,170.800 263.160 C 172.010 264.619,174.980 268.230,177.400 271.183 C 179.820 274.137,184.687 280.074,188.214 284.377 C 191.742 288.680,198.132 296.511,202.414 301.780 C 206.697 307.049,212.900 314.590,216.200 318.536 C 219.500 322.483,223.550 327.367,225.200 329.390 C 241.002 348.762,252.432 358.284,251.017 350.897 C 250.859 350.073,250.596 348.680,250.431 347.800 C 249.283 341.661,228.898 314.213,172.745 243.200 C 144.258 207.175,136.795 194.007,134.780 176.223 C 134.555 174.239,134.107 172.212,133.783 171.718 C 132.350 169.531,118.775 167.468,115.942 169.007 M127.143 170.770 C 133.178 171.940,132.856 171.566,133.791 178.490 C 136.075 195.395,144.541 209.716,175.047 248.276 C 196.723 275.676,213.916 298.461,216.024 302.581 C 216.367 303.251,217.132 304.561,217.724 305.492 C 220.462 309.797,217.279 309.529,213.328 305.121 C 212.487 304.184,211.216 302.811,210.502 302.070 C 209.787 301.329,207.987 299.354,206.502 297.682 C 205.016 296.009,203.530 294.347,203.200 293.989 C 202.870 293.630,201.671 292.181,200.536 290.769 C 199.401 289.356,197.375 286.850,196.035 285.200 C 182.244 268.219,171.369 254.554,166.112 247.600 C 163.664 244.361,159.077 239.450,150.607 231.000 C 133.163 213.598,130.018 209.569,123.520 196.295 C 119.989 189.083,116.925 177.826,117.344 173.600 C 117.722 169.783,119.461 169.281,127.143 170.770 M45.076 216.089 C 44.506 219.670,43.951 224.130,43.842 226.000 C 43.661 229.118,43.691 229.020,44.199 224.825 C 44.504 222.309,45.142 217.932,45.617 215.099 C 46.092 212.265,46.397 209.864,46.296 209.762 C 46.194 209.661,45.646 212.508,45.076 216.089 M43.331 232.200 C 43.333 233.740,43.405 234.321,43.492 233.491 C 43.579 232.661,43.577 231.401,43.489 230.691 C 43.400 229.981,43.329 230.660,43.331 232.200 M191.547 233.637 C 195.502 235.613,196.128 236.330,214.400 259.802 C 217.370 263.617,222.725 270.488,226.299 275.070 C 229.874 279.651,233.453 284.660,234.253 286.200 C 235.979 289.525,237.100 291.078,244.793 300.800 C 265.626 327.128,268.079 331.194,265.793 335.613 C 263.022 340.972,257.269 338.372,249.390 328.200 C 247.686 326.000,243.361 320.510,239.779 316.000 C 236.198 311.490,229.349 302.850,224.561 296.800 C 219.772 290.750,213.851 283.280,211.402 280.200 C 178.939 239.366,179.356 240.018,182.772 235.302 C 185.173 231.988,187.401 231.565,191.547 233.637 M42.967 243.200 C 42.967 247.490,43.026 249.245,43.098 247.100 C 43.170 244.955,43.170 241.445,43.098 239.300 C 43.026 237.155,42.967 238.910,42.967 243.200 M43.324 253.800 C 43.326 255.120,43.401 255.612,43.490 254.893 C 43.579 254.174,43.577 253.094,43.486 252.493 C 43.395 251.892,43.322 252.480,43.324 253.800 M335.857 258.281 C 335.446 263.143,331.705 273.450,325.954 285.562 C 322.298 293.263,321.540 293.627,317.710 289.527 C 305.855 276.835,291.649 269.307,270.800 264.667 C 263.317 263.002,255.400 261.964,249.000 261.811 L 243.000 261.666 248.600 261.981 C 277.229 263.589,301.909 273.332,316.468 288.775 C 322.130 294.780,322.498 294.502,329.543 278.886 C 333.680 269.718,337.832 255.200,336.317 255.200 C 336.207 255.200,336.000 256.587,335.857 258.281 M43.709 258.000 C 43.709 258.990,43.787 259.395,43.882 258.900 C 43.978 258.405,43.978 257.595,43.882 257.100 C 43.787 256.605,43.709 257.010,43.709 258.000 M44.047 261.433 C 44.073 262.295,44.239 263.540,44.415 264.200 C 44.618 264.956,44.654 264.438,44.515 262.800 C 44.267 259.886,43.975 259.031,44.047 261.433 M238.200 262.400 C 235.873 262.817,238.340 262.833,241.000 262.418 C 242.899 262.123,242.919 262.107,241.400 262.110 C 240.520 262.112,239.080 262.242,238.200 262.400 M44.887 266.400 C 44.883 266.950,45.024 267.850,45.200 268.400 C 45.631 269.744,45.631 268.292,45.200 266.600 C 44.926 265.522,44.894 265.502,44.887 266.400 M45.636 269.918 C 45.582 270.692,46.922 275.837,47.061 275.388 C 47.127 275.175,46.841 273.740,46.426 272.200 C 46.012 270.660,45.656 269.633,45.636 269.918 M47.220 276.288 C 47.194 276.929,49.378 282.904,49.987 283.859 C 50.432 284.556,50.444 284.553,50.181 283.800 C 48.840 279.961,47.236 275.892,47.220 276.288 M107.573 284.232 C 106.669 285.322,107.520 286.619,117.645 299.573 C 130.801 316.404,136.496 323.888,141.482 330.900 C 143.789 334.145,145.751 336.800,145.842 336.800 C 146.061 336.800,136.531 322.739,133.235 318.200 C 131.797 316.220,125.766 308.302,119.832 300.603 C 109.503 287.204,107.968 284.835,109.800 285.128 C 110.775 285.283,111.643 286.194,116.004 291.639 C 122.351 299.563,130.035 308.800,130.280 308.800 C 130.414 308.800,130.247 308.485,129.909 308.100 C 129.570 307.715,125.561 302.720,120.999 297.000 C 109.826 282.991,109.142 282.341,107.573 284.232 M50.400 284.947 C 50.400 285.380,52.388 289.200,52.613 289.200 C 52.723 289.200,52.339 288.255,51.759 287.100 C 50.643 284.879,50.400 284.494,50.400 284.947 M53.825 291.500 C 56.031 295.307,57.462 297.190,81.394 327.800 C 86.211 333.960,94.583 344.670,100.000 351.600 C 105.416 358.530,113.514 368.880,117.995 374.600 C 135.708 397.212,140.932 403.889,150.541 416.200 C 165.214 434.997,166.196 436.196,170.779 440.923 C 175.216 445.498,180.699 449.936,185.900 453.162 C 189.106 455.150,195.330 458.408,195.891 458.391 C 196.061 458.385,194.180 457.326,191.712 456.035 C 178.468 449.113,172.212 443.335,157.226 424.181 C 152.071 417.591,144.680 408.150,140.802 403.200 C 136.924 398.250,130.016 389.430,125.451 383.600 C 120.886 377.770,114.749 369.940,111.813 366.200 C 108.877 362.460,100.509 351.750,93.216 342.400 C 85.924 333.050,78.401 323.420,76.498 321.000 C 64.951 306.317,56.172 294.756,54.748 292.359 C 53.846 290.842,53.022 289.600,52.916 289.600 C 52.811 289.600,53.219 290.455,53.825 291.500 M132.000 311.200 C 132.921 312.300,133.764 313.200,133.874 313.200 C 133.984 313.200,133.321 312.300,132.400 311.200 C 131.479 310.100,130.636 309.200,130.526 309.200 C 130.416 309.200,131.079 310.100,132.000 311.200 M159.600 354.525 C 159.600 354.594,160.185 355.179,160.900 355.825 L 162.200 357.000 161.025 355.700 C 159.930 354.488,159.600 354.216,159.600 354.525 M167.623 363.422 C 170.800 366.955,175.650 372.350,178.400 375.413 C 189.499 387.773,189.250 386.521,177.051 368.642 C 174.319 364.637,174.183 364.524,175.310 367.191 C 176.965 371.109,175.367 370.127,167.223 362.220 L 161.846 357.000 167.623 363.422 M203.467 405.467 C 202.318 406.615,204.936 410.400,206.880 410.400 C 209.113 410.400,209.529 407.885,207.569 406.236 C 206.398 405.250,204.112 404.821,203.467 405.467 M207.600 406.800 C 208.538 407.738,208.574 408.008,207.888 408.947 C 207.229 409.848,205.396 409.249,205.001 408.004 C 204.442 406.241,206.218 405.418,207.600 406.800 M196.400 458.515 C 196.400 458.791,201.659 460.874,201.857 460.676 C 201.944 460.589,201.068 460.148,199.908 459.697 C 198.749 459.247,197.485 458.751,197.100 458.596 C 196.715 458.441,196.400 458.405,196.400 458.515 M206.371 462.235 C 207.346 462.540,208.786 462.881,209.571 462.991 C 210.357 463.101,209.740 462.837,208.200 462.404 C 205.028 461.514,203.673 461.388,206.371 462.235 M238.200 463.409 C 237.100 463.692,236.560 463.937,237.000 463.954 C 237.440 463.971,238.700 463.734,239.800 463.428 C 242.311 462.729,240.909 462.713,238.200 463.409 M215.700 464.276 C 216.085 464.376,216.715 464.376,217.100 464.276 C 217.485 464.175,217.170 464.093,216.400 464.093 C 215.630 464.093,215.315 464.175,215.700 464.276 M234.100 464.276 C 234.485 464.376,235.115 464.376,235.500 464.276 C 235.885 464.175,235.570 464.093,234.800 464.093 C 234.030 464.093,233.715 464.175,234.100 464.276 M219.300 464.691 C 220.125 464.778,221.475 464.778,222.300 464.691 C 223.125 464.605,222.450 464.534,220.800 464.534 C 219.150 464.534,218.475 464.605,219.300 464.691 M229.500 464.689 C 230.215 464.778,231.385 464.778,232.100 464.689 C 232.815 464.601,232.230 464.528,230.800 464.528 C 229.370 464.528,228.785 464.601,229.500 464.689 M225.505 465.083 C 226.002 465.179,226.722 465.175,227.105 465.075 C 227.487 464.975,227.080 464.896,226.200 464.901 C 225.320 464.905,225.007 464.987,225.505 465.083 " stroke="none" fill="#7c7b7c" fill-rule="evenodd"></path><path id="path5" d="M189.200 30.446 C 175.550 31.985,167.409 33.869,157.335 37.817 C 139.663 44.744,114.887 63.119,101.537 79.200 C 85.953 97.972,69.861 127.358,63.863 148.000 C 63.320 149.870,61.346 155.180,59.478 159.800 C 37.550 214.026,35.091 264.270,52.954 293.097 C 55.097 296.555,59.055 301.737,80.837 329.600 C 85.566 335.650,93.939 346.360,99.442 353.400 C 104.945 360.440,113.114 370.880,117.595 376.600 C 135.262 399.154,140.575 405.947,151.534 420.000 C 167.397 440.339,169.837 443.099,177.000 448.790 C 206.365 472.123,244.906 472.568,268.698 449.849 C 274.927 443.900,278.452 439.019,284.188 428.400 C 285.673 425.650,288.136 421.222,289.659 418.559 C 295.621 408.142,297.899 398.021,297.322 384.516 L 297.084 378.954 298.642 377.663 C 303.638 373.522,305.469 373.728,307.822 378.692 C 308.632 380.402,309.995 383.271,310.852 385.070 C 313.321 390.256,316.846 392.821,323.400 394.202 C 345.100 398.774,360.865 382.038,368.368 346.467 C 372.025 329.133,374.445 313.140,375.610 298.612 C 375.821 295.978,376.185 292.378,376.418 290.612 C 377.109 285.380,376.680 232.521,375.886 225.000 C 372.980 197.491,369.788 182.430,362.554 162.089 C 342.406 105.437,291.766 52.557,242.600 36.828 C 225.057 31.216,204.330 28.739,189.200 30.446 M215.111 31.767 C 243.667 35.325,268.836 46.398,291.934 65.566 C 340.571 105.929,368.155 157.448,374.190 219.200 C 374.544 222.830,375.052 227.780,375.317 230.200 C 375.997 236.396,375.980 286.149,375.296 292.200 C 375.023 294.620,374.429 300.200,373.978 304.600 C 369.379 349.422,361.035 376.179,348.352 386.777 C 335.437 397.567,316.935 396.274,311.377 384.192 C 310.619 382.546,309.387 379.867,308.638 378.238 C 306.218 372.976,305.109 372.588,300.392 375.354 C 295.726 378.089,296.017 377.315,295.840 387.435 C 295.618 400.111,295.382 401.012,287.903 417.800 C 283.950 426.673,281.970 430.671,279.244 435.287 C 258.472 470.454,212.437 475.986,176.799 447.596 C 170.326 442.440,167.582 439.275,149.751 416.400 C 140.973 405.139,133.540 395.638,117.206 374.800 C 113.154 369.630,105.336 359.640,99.834 352.600 C 94.331 345.560,85.959 334.850,81.230 328.800 C 59.666 301.217,55.538 295.808,53.612 292.619 C 36.093 263.616,38.356 215.507,59.786 161.400 C 62.051 155.680,64.454 149.262,65.125 147.138 C 73.974 119.119,94.781 84.875,113.012 68.327 C 137.707 45.911,160.905 34.346,186.334 31.773 C 189.560 31.446,192.470 31.102,192.800 31.009 C 194.113 30.635,210.498 31.193,215.111 31.767 M196.800 87.402 C 169.996 93.430,153.465 120.334,153.421 158.000 C 153.399 176.950,156.557 186.795,164.620 192.918 C 169.283 196.459,170.448 197.593,173.133 201.200 C 175.202 203.979,179.578 209.531,197.400 231.980 C 201.140 236.691,206.064 242.898,208.341 245.773 C 213.929 252.825,215.354 254.242,218.419 255.799 C 219.859 256.530,221.992 257.909,223.159 258.864 C 228.100 262.907,229.193 263.289,233.184 262.369 C 259.243 256.364,297.718 267.871,316.756 287.364 C 321.981 292.714,322.002 292.699,327.929 279.000 C 334.535 263.735,335.401 260.170,334.566 251.716 C 326.968 174.865,274.471 100.425,219.200 88.128 C 213.369 86.831,201.106 86.434,196.800 87.402 M216.928 88.566 C 250.325 95.308,282.547 123.251,306.761 166.467 C 321.540 192.845,333.711 233.350,333.783 256.400 L 333.800 261.800 330.896 269.174 C 327.199 278.562,323.338 287.317,322.327 288.602 C 321.117 290.140,320.429 289.851,316.991 286.365 C 298.184 267.298,262.040 256.226,234.666 261.147 C 228.941 262.176,228.623 262.109,225.263 259.151 C 223.798 257.862,221.226 256.088,219.547 255.208 C 215.959 253.328,214.342 251.673,207.204 242.571 C 204.456 239.067,197.340 230.080,191.391 222.600 C 185.442 215.120,178.974 206.930,177.017 204.400 C 172.852 199.015,169.002 194.923,166.200 192.906 C 161.707 189.670,160.392 187.893,157.825 181.591 C 152.301 168.024,152.824 144.473,159.056 126.281 C 166.356 104.967,181.159 90.730,199.000 87.861 C 201.497 87.459,213.854 87.945,216.928 88.566 M184.857 235.013 C 180.855 238.381,182.398 242.177,193.225 255.600 C 194.910 257.690,202.195 266.870,209.412 276.000 C 231.967 304.533,234.019 307.125,241.220 316.176 C 245.081 321.029,249.889 327.085,251.904 329.634 C 257.677 336.937,261.836 338.969,264.383 335.731 C 266.488 333.054,264.916 328.762,259.107 321.325 C 257.249 318.946,255.129 316.100,254.397 315.000 C 252.795 312.594,249.773 308.650,241.963 298.776 C 238.734 294.692,235.238 290.012,234.195 288.376 C 232.116 285.113,231.757 284.647,211.256 258.600 C 191.644 233.682,189.119 231.427,184.857 235.013 M189.916 237.159 C 192.007 238.228,195.224 241.781,202.600 251.165 C 206.120 255.643,211.943 263.018,215.540 267.554 C 227.793 283.004,230.301 286.216,235.720 293.400 C 238.043 296.480,242.162 301.795,244.872 305.211 C 247.582 308.626,250.160 312.106,250.600 312.943 L 251.400 314.464 250.300 315.347 C 249.695 315.833,249.200 316.497,249.200 316.822 C 249.200 317.937,255.559 326.161,260.528 331.473 C 262.503 333.585,262.813 334.103,262.399 334.602 C 260.760 336.576,257.501 334.476,252.776 328.402 C 250.699 325.732,248.010 322.321,246.800 320.820 C 238.203 310.157,234.605 305.659,229.189 298.800 C 222.767 290.669,219.741 286.851,201.604 264.000 C 188.252 247.179,186.208 244.441,185.582 242.546 C 183.991 237.725,186.041 235.177,189.916 237.159 " stroke="none" fill="#bebebc" fill-rule="evenodd"></path><path id="path6" d="M189.400 29.258 C 159.866 32.442,138.180 42.903,111.798 66.692 C 92.953 83.685,70.808 120.364,62.648 148.101 C 62.114 149.916,59.974 155.630,57.892 160.800 C 35.308 216.881,34.010 268.796,54.475 297.412 C 55.424 298.739,60.250 305.003,65.200 311.331 C 70.150 317.659,75.629 324.674,77.377 326.919 C 79.124 329.163,84.716 336.310,89.803 342.800 C 94.891 349.290,101.302 357.480,104.052 361.000 C 106.801 364.520,116.227 376.580,124.998 387.800 C 133.769 399.020,144.727 413.060,149.349 419.000 C 165.903 440.276,168.818 443.627,175.353 448.886 C 204.735 472.533,241.631 474.156,267.264 452.929 C 273.053 448.134,276.966 443.243,283.207 433.000 C 285.485 429.260,288.406 424.590,289.697 422.622 C 296.692 411.961,299.571 400.248,298.935 385.027 C 298.670 378.675,298.656 378.711,302.194 376.842 C 304.915 375.405,305.387 375.881,308.634 383.345 C 311.879 390.802,315.778 393.990,323.400 395.418 C 341.549 398.817,354.627 389.293,364.128 365.758 C 369.767 351.788,374.404 326.289,377.613 291.600 C 378.202 285.229,377.936 233.578,377.278 226.600 C 373.906 190.832,366.923 164.993,353.257 137.715 C 334.553 100.378,299.792 63.635,266.000 45.484 C 243.135 33.202,212.671 26.749,189.400 29.258 M214.200 30.773 C 254.650 35.568,288.946 55.573,322.107 93.714 C 352.080 128.188,369.324 167.939,374.812 215.214 C 376.461 229.416,376.518 230.751,376.681 259.200 C 376.787 277.714,376.696 288.503,376.418 290.612 C 376.185 292.378,375.821 295.978,375.610 298.612 C 374.445 313.140,372.025 329.133,368.368 346.467 C 360.865 382.038,345.100 398.774,323.400 394.202 C 316.846 392.821,313.321 390.256,310.852 385.070 C 309.995 383.271,308.632 380.402,307.822 378.692 C 305.469 373.728,303.638 373.522,298.642 377.663 L 297.084 378.954 297.322 384.516 C 297.899 398.021,295.621 408.142,289.659 418.559 C 288.136 421.222,285.673 425.650,284.188 428.400 C 278.452 439.019,274.927 443.900,268.698 449.849 C 244.906 472.568,206.365 472.123,177.000 448.790 C 169.837 443.099,167.397 440.339,151.534 420.000 C 140.575 405.947,135.262 399.154,117.595 376.600 C 113.114 370.880,104.945 360.440,99.442 353.400 C 93.939 346.360,85.566 335.650,80.837 329.600 C 59.055 301.737,55.097 296.555,52.954 293.097 C 35.091 264.270,37.550 214.026,59.478 159.800 C 61.346 155.180,63.320 149.870,63.863 148.000 C 69.861 127.358,85.953 97.972,101.537 79.200 C 114.887 63.119,139.663 44.744,157.335 37.817 C 167.409 33.869,175.550 31.985,189.200 30.446 C 194.905 29.802,207.386 29.966,214.200 30.773 M199.000 87.861 C 181.159 90.730,166.356 104.967,159.056 126.281 C 152.824 144.473,152.301 168.024,157.825 181.591 C 160.392 187.893,161.707 189.670,166.200 192.906 C 169.002 194.923,172.852 199.015,177.017 204.400 C 178.974 206.930,185.442 215.120,191.391 222.600 C 197.340 230.080,204.456 239.067,207.204 242.571 C 214.342 251.673,215.959 253.328,219.547 255.208 C 221.226 256.088,223.798 257.862,225.263 259.151 C 228.623 262.109,228.941 262.176,234.666 261.147 C 262.040 256.226,298.184 267.298,316.991 286.365 C 320.429 289.851,321.117 290.140,322.327 288.602 C 323.338 287.317,327.199 278.562,330.896 269.174 L 333.800 261.800 333.783 256.400 C 333.735 241.079,327.254 213.399,318.611 191.600 C 302.815 151.762,275.264 117.001,245.860 99.810 C 231.938 91.670,220.258 88.061,207.000 87.801 C 203.260 87.728,199.660 87.755,199.000 87.861 M218.600 89.982 C 256.780 98.208,296.314 138.834,317.323 191.434 C 326.075 213.346,332.475 240.287,332.566 255.600 L 332.600 261.400 330.255 267.400 C 324.904 281.088,322.012 287.467,320.977 287.864 C 320.591 288.012,318.810 286.575,315.874 283.746 C 297.141 265.692,261.416 255.219,234.706 259.953 C 229.158 260.936,229.067 260.913,225.413 257.670 C 223.932 256.355,221.288 254.509,219.538 253.567 L 216.356 251.854 201.051 232.627 C 192.633 222.052,182.953 209.890,179.540 205.600 C 173.059 197.455,170.062 194.296,165.434 190.731 C 152.745 180.955,151.620 143.501,163.275 118.800 C 174.442 95.133,194.357 84.759,218.600 89.982 M185.770 237.234 C 184.905 238.189,184.832 240.272,185.582 242.546 C 186.208 244.441,188.252 247.179,201.604 264.000 C 219.741 286.851,222.767 290.669,229.189 298.800 C 234.605 305.659,238.203 310.157,246.800 320.820 C 248.010 322.321,250.699 325.732,252.776 328.402 C 257.501 334.476,260.760 336.576,262.399 334.602 C 262.813 334.103,262.503 333.585,260.528 331.473 C 255.559 326.161,249.200 317.937,249.200 316.822 C 249.200 316.497,249.695 315.833,250.300 315.347 L 251.400 314.464 250.600 312.943 C 250.160 312.106,247.582 308.626,244.872 305.211 C 242.162 301.795,238.043 296.480,235.720 293.400 C 230.301 286.216,227.793 283.004,215.540 267.554 C 211.943 263.018,206.120 255.643,202.600 251.165 C 191.665 237.252,188.285 234.454,185.770 237.234 " stroke="none" fill="#d1d1cf" fill-rule="evenodd"></path></g></svg>