<?xml version="1.0" standalone="no"?>
<!DOCTYPE svg PUBLIC "-//W3C//DTD SVG 20010904//EN"
 "http://www.w3.org/TR/2001/REC-SVG-20010904/DTD/svg10.dtd">
<svg version="1.0" xmlns="http://www.w3.org/2000/svg"
 width="311.000000pt" height="390.000000pt" viewBox="0 0 311.000000 390.000000"
 preserveAspectRatio="xMidYMid meet">

<g transform="translate(0.000000,390.000000) scale(0.100000,-0.100000)"
fill="#000000" stroke="none">
<path d="M1410 3645 c-109 -17 -162 -35 -258 -84 -291 -152 -500 -413 -643
-802 -92 -251 -110 -305 -129 -379 -79 -308 -60 -603 47 -762 82 -121 872
-1121 926 -1170 116 -109 252 -162 407 -161 108 0 178 21 267 80 126 83 203
233 203 395 0 38 3 68 8 68 13 0 51 65 57 100 4 25 16 42 41 58 18 12 36 22
39 22 4 0 19 -29 36 -65 34 -76 58 -94 133 -102 47 -5 64 -2 110 21 112 55
173 181 222 456 42 236 57 614 33 856 -32 337 -146 643 -328 884 -89 118 -283
312 -381 382 -150 106 -298 168 -474 199 -123 22 -195 22 -316 4z m312 -430
c366 -95 716 -530 841 -1045 39 -157 52 -271 36 -317 -10 -33 -88 -223 -94
-231 -2 -2 -29 23 -61 55 -132 131 -399 214 -594 185 l-74 -11 -33 30 c-19 16
-40 29 -47 29 -8 0 -56 53 -107 118 -52 64 -135 170 -186 234 -51 64 -106 125
-123 134 -18 11 -39 40 -57 78 -27 58 -28 68 -28 206 0 158 12 215 65 319 52
103 145 189 234 217 57 18 157 17 228 -1z m-701 -631 c23 -4 26 -12 38 -80 23
-141 69 -211 442 -684 295 -374 324 -412 326 -430 1 -8 6 -34 11 -57 16 -73
-1 -61 -148 107 -8 10 -105 129 -215 266 -110 137 -258 310 -330 385 -107 112
-138 152 -176 225 -53 100 -82 204 -73 253 7 33 7 33 53 27 25 -4 58 -9 72
-12z m485 -521 c17 -16 56 -61 87 -100 32 -40 81 -103 110 -140 158 -199 337
-433 356 -463 27 -44 26 -65 -1 -84 -20 -14 -24 -14 -49 2 -22 14 -517 628
-582 722 -49 71 14 121 79 63z m-538 -461 c51 -63 92 -109 92 -103 0 5 -5 13
-11 17 -6 3 -9 20 -6 38 2 17 0 40 -5 51 -13 25 -5 16 57 -60 77 -95 118 -135
136 -135 26 0 169 -185 169 -217 0 -16 22 -56 57 -102 86 -116 108 -147 93
-133 -8 6 -25 12 -39 12 -14 0 -36 10 -50 23 -28 25 -26 21 49 -78 105 -137
121 -155 146 -155 13 0 24 -4 24 -10 0 -5 -7 -10 -15 -10 -9 0 -21 -11 -27
-25 -14 -30 -19 -31 -49 -6 -22 18 -23 21 -7 33 16 12 9 23 -68 118 -99 121
-101 123 -85 92 7 -13 10 -26 7 -29 -3 -4 -1 -13 6 -22 7 -9 3 -7 -9 4 -27 27
-193 230 -278 340 -38 50 -130 168 -204 264 -119 153 -133 175 -118 186 10 7
14 19 10 33 -3 12 1 30 8 39 13 14 15 12 20 -18 3 -23 35 -70 97 -147z"/>
</g>
</svg>
